<?xml version="1.0" standalone="no"?><!DOCTYPE svg PUBLIC "-//W3C//DTD SVG 1.1//EN" "http://www.w3.org/Graphics/SVG/1.1/DTD/svg11.dtd"><svg t="1626690705976" class="icon" viewBox="0 0 1024 1024" version="1.1" xmlns="http://www.w3.org/2000/svg" p-id="1598" width="64" height="64" xmlns:xlink="http://www.w3.org/1999/xlink"><defs><style type="text/css"></style></defs><path d="M591.36 0c211.053714 0 382.756571 171.702857 382.756571 382.774857v186.806857a139.52 139.52 0 0 1 40.649143 98.797715v38.637714c0 77.421714-62.994286 140.434286-140.416 140.434286H848.457143C803.529143 951.186286 700.233143 1024 580.205714 1024h-145.627428c-120.045714 0-223.341714-72.813714-268.251429-176.548571H140.434286c-77.44 0-140.434286-63.012571-140.434286-140.434286v-38.656c0-38.436571 15.542857-73.289143 40.667429-98.669714V382.774857C40.667429 171.702857 212.370286 0 423.424 0z m-28.8 405.632A331.154286 331.154286 0 0 1 318.354286 513.28h-99.510857v218.477714c0 23.021714 3.675429 45.769143 10.916571 67.584 1.499429 4.498286 1.846857 9.161143 1.554286 13.750857C263.68 893.714286 342.528 950.857143 434.578286 950.857143h145.609143c92.068571 0 170.898286-57.142857 203.282285-137.746286a35.894857 35.894857 0 0 1 1.554286-13.750857c7.241143-21.869714 10.916571-44.598857 10.916571-67.602286V513.115429a331.136 331.136 0 0 1-233.380571-107.483429zM368.475429 782.098286a25.216 25.216 0 0 1 35.657142 0 145.097143 145.097143 0 0 0 103.241143 42.806857 145.078857 145.078857 0 0 0 103.277715-42.806857 25.216 25.216 0 0 1 35.620571 35.638857 195.181714 195.181714 0 0 1-138.898286 57.581714 195.145143 195.145143 0 0 1-138.898285-57.581714 25.216 25.216 0 0 1 0-35.638857z m505.874285-177.645715h-1.901714v127.305143c0 14.482286-1.408 28.617143-3.456 42.550857h5.357714a67.364571 67.364571 0 0 0 67.291429-67.291428v-38.656c0-16.365714-6.070857-31.689143-16.713143-43.904a36.205714 36.205714 0 0 1-10.422857-5.741714 63.030857 63.030857 0 0 0-40.155429-14.262858z m-732.013714 0h-1.993143c-14.537143 0-28.763429 5.046857-40.009143 14.208a36.900571 36.900571 0 0 1-10.642285 6.016A66.633143 66.633143 0 0 0 73.142857 668.361143v38.656a67.364571 67.364571 0 0 0 67.291429 67.291428h5.357714a291.657143 291.657143 0 0 1-3.456-42.550857v-127.305143z m341.485714-36.534857a25.197714 25.197714 0 0 1 32.475429-14.683428 25.234286 25.234286 0 0 1 14.665143 32.493714v0.018286l-29.110857 76.982857 24.045714 26.038857a25.197714 25.197714 0 1 1-37.028572 34.194286l-34.614857-37.485715a25.179429 25.179429 0 0 1-5.046857-26.020571z m179.382857-25.124571c13.897143 0 25.161143 11.282286 25.161143 25.179428v74.313143a25.179429 25.179429 0 1 1-50.395428 0V567.954286c0-13.915429 11.300571-25.179429 25.234285-25.179429z m-311.588571 0c13.897143 0 25.179429 11.264 25.179429 25.179428v74.294858a25.197714 25.197714 0 0 1-50.395429 0v-74.294858c0-13.933714 11.282286-25.197714 25.234286-25.197714zM591.36 73.142857h-167.936C252.708571 73.142857 113.810286 212.041143 113.810286 382.774857v147.785143a140.434286 140.434286 0 0 1 26.624-2.614857h1.901714v-37.284572a53.924571 53.924571 0 0 1 53.869714-53.869714h122.148572c72.96 0 142.537143-31.451429 190.866285-86.272a71.113143 71.113143 0 0 1 106.660572 0 254.610286 254.610286 0 0 0 190.902857 86.272h11.776a53.942857 53.942857 0 0 1 53.888 53.869714v37.284572h1.901714c9.033143 0 17.938286 0.896 26.624 2.56v-147.730286C900.973714 212.041143 762.075429 73.142857 591.36 73.142857z" p-id="1599"></path></svg>